<svg width="41" height="41" xmlns="http://www.w3.org/2000/svg" fill="none">
  <defs>
    <clipPath id="clip0_150_357">
      <rect
        width="31.16"
        height="30.176"
        fill="white"
        y="5.41211"
        x="4.91992"
        id="svg_1"
      />
    </clipPath>
    <linearGradient
      id="paint0_linear_150_357"
      x1="0.80027"
      y1="0.86005"
      x2="0.21145"
      y2="0.11115"
    >
      <stop stop-color="#52D67A" />
      <stop offset="1" stop-color="#5AEE87" />
    </linearGradient>
  </defs>
  <g>
    <path
      stroke="null"
      d="m38.1543,31.26062c0.03506,0.43111 -0.28529,0.80155 -0.69304,0.80155l-33.53734,0c-0.40674,0 -0.7267,-0.36869 -0.69314,-0.79898l2.40339,-30.80864c0.02991,-0.3827 0.33127,-0.6772 0.69332,-0.6772l28.63027,0c0.36096,0 0.66197,0.29303 0.69291,0.67462l2.50363,30.80866z"
      fill="#1DCF65"
      id="svg_3"
    />
    <path
      stroke="null"
      d="m40.89949,39.96293c0.04255,0.54712 -0.36354,1.01626 -0.87973,1.01626l-39.05437,0c-0.51511,0 -0.92092,-0.4668 -0.88012,-1.01309l2.80373,-37.55377c0.03655,-0.4884 0.41957,-0.86449 0.88012,-0.86449l33.32999,0c0.4595,0 0.84216,0.37459 0.87999,0.86148l2.9204,37.55362z"
      fill="url(#paint0_linear_150_357)"
      id="svg_4"
    />
    <path
      stroke="null"
      d="m19.97877,28.59424c-5.00572,0 -9.07797,-5.1887 -9.07797,-11.56633c0,-0.33213 0.25383,-0.60157 0.56696,-0.60157c0.31313,0 0.56683,0.26917 0.56683,0.60157c0,5.71431 3.56382,10.36318 7.94443,10.36318c4.38049,0 7.9443,-4.64887 7.9443,-10.36318c0,-0.33213 0.2537,-0.60157 0.56696,-0.60157c0.31313,0 0.56683,0.26917 0.56683,0.60157c-0.00013,6.37762 -4.07264,11.56633 -9.07836,11.56633z"
      fill="white"
      id="svg_5"
    />
    <path
      stroke="null"
      d="m25.56705,16.86666c-0.14503,0 -0.29006,-0.05863 -0.40092,-0.17615c-0.22134,-0.23491 -0.22134,-0.61579 0,-0.8507l2.93781,-3.11739c0.10622,-0.11265 0.25048,-0.17615 0.40079,-0.17615c0.15044,0 0.29457,0.06323 0.40092,0.17615l2.90906,3.08706c0.22134,0.23491 0.22134,0.61579 0,0.8507c-0.22147,0.23478 -0.58037,0.23491 -0.80171,0l-2.5084,-2.66151l-2.53676,2.69184c-0.11074,0.11752 -0.25576,0.17615 -0.40079,0.17615z"
      fill="white"
      id="svg_6"
    />
  </g>
</svg>
